<?xml version="1.0" encoding="utf-8"?>
<!-- Generator: Adobe Illustrator 26.2.1, SVG Export Plug-In . SVG Version: 6.00 Build 0)  -->
<svg version="1.1" id="Layer_1" xmlns="http://www.w3.org/2000/svg" xmlns:xlink="http://www.w3.org/1999/xlink" x="0px" y="0px"
	 viewBox="0 0 250 150" style="enable-background:new 0 0 250 150;" xml:space="preserve">
<style type="text/css">
	.st0{fill:#FFFFFF;}
	.st1{font-family:'MyriadPro-Regular';}
	.st2{font-size:16px;}
</style>
<path d="M189.9,120H52c-1,0-1.7-0.8-1.7-1.7V31.7c0-1,0.8-1.7,1.7-1.7h137.9c1,0,1.7,0.8,1.7,1.7v86.6
	C191.6,119.3,190.9,120,189.9,120z"/>
<rect x="51.2" y="103.4" class="st0" width="11.5" height="13"/>
<rect x="77.8" y="103.4" class="st0" width="11.5" height="13"/>
<rect x="104.7" y="103.4" class="st0" width="11.5" height="13"/>
<rect x="130.4" y="103.4" class="st0" width="11.5" height="13"/>
<rect x="155.3" y="103.4" class="st0" width="11.5" height="13"/>
<text transform="matrix(1 0 0 1 64.1476 79.934)" class="st0 st1 st2">ECLIPSE CINEMA</text>
<rect x="180.2" y="103.4" class="st0" width="11.5" height="13"/>
<rect x="51.7" y="33.9" class="st0" width="11.5" height="13"/>
<rect x="78.3" y="33.9" class="st0" width="11.5" height="13"/>
<rect x="105.2" y="33.9" class="st0" width="11.5" height="13"/>
<rect x="130.8" y="33.9" class="st0" width="11.5" height="13"/>
<rect x="155.8" y="33.9" class="st0" width="11.5" height="13"/>
<rect x="180.6" y="33.9" class="st0" width="11.5" height="13"/>
<polygon points="213.4,58.8 213.4,97.6 194.2,87.9 194.2,68.5 "/>
<polygon points="36.6,59 36.6,42 48.1,46.3 48.1,54.7 "/>
</svg>
